<?xml version="1.0" encoding="UTF-8"?>
<svg id="Réteg_2" data-name="Réteg 2" xmlns="http://www.w3.org/2000/svg" viewBox="0 0 405.97 153.05">
  <g id="Réteg_1" data-name="Réteg 1">
    <g>
      <path d="m216.92,114.86c.32-1.01.6-1.95.91-2.89,1.59-4.77,3.17-9.54,4.82-14.29.12-.34.76-.71,1.17-.72,5.08-.08,10.16-.09,15.24-.12,2.61-.01,5.23,0,7.92,0v-54.48c-.68,0-1.37,0-2.06,0-10.91,0-21.83,0-32.74,0-.8,0-1.43,0-1.43,1.15.03,9.54.01,19.08.01,28.62,0,.12.04.24.08.45h30.13c-.75,2.27-1.48,4.5-2.21,6.72-.97,2.92-1.94,5.84-2.92,8.75-.17.51-.4,1-.6,1.5-.33.83-.88,1.13-1.83,1.12-9.29-.07-18.58-.05-27.86-.14-1.85-.02-3.77-.14-5.54-.64-4.2-1.19-6.59-4.08-6.94-8.46-.22-2.78-.34-5.57-.34-8.36-.02-11.87,0-23.74.05-35.62,0-1.37.16-2.74.29-4.1.56-5.74,5.01-8.49,9.53-8.87,2.24-.18,4.49-.22,6.74-.23,14.12-.01,28.24-.02,42.36.02,1.7,0,3.41.2,5.08.49,5.24.9,7.89,4.31,8.15,9.56.32,6.27.15,12.58.15,18.86,0,16.5-.02,32.99-.05,49.49,0,1.04-.02,2.09-.21,3.11-1.07,5.66-4.13,8.41-9.9,8.95-.95.09-1.91.17-2.87.17-11.41.02-22.83.02-34.24.02-.24,0-.49-.04-.9-.08Z"/>
      <path d="m54.34,18.24H18.01v1.66c0,23.08,0,46.16.02,69.24,0,1.12-.25,1.5-1.43,1.49-5.16-.04-10.33.03-15.49.06-.36,0-.73-.03-1.11-.05,0-4.94,0-9.81,0-14.67C.02,54.51.02,33.05.11,11.6c0-1.74.41-3.58,1.04-5.21C2.73,2.34,6.05.52,10.22.25,13.62.04,17.05.03,20.46.03,32.67,0,44.87,0,57.08.06c2.41.01,4.86.09,7.21.55,5.18,1.01,7.21,4.22,7.96,9.27.23,1.56.23,3.16.23,4.74.02,12.46.03,24.91,0,37.37,0,2.07-.11,4.18-.47,6.21-.8,4.47-4.04,7.46-8.59,7.96-2.6.29-5.23.4-7.85.41-10.08,0-20.16-.06-30.24-.1-.29,0-.58-.04-.99-.07.87-2.65,1.72-5.24,2.58-7.82,1.04-3.11,2.15-6.2,3.12-9.34.29-.93.87-.73,1.45-.74,7.12-.01,14.25,0,21.37,0,.45,0,.91,0,1.48,0v-30.25Z"/>
      <path d="m323.39,72.56c-.19.73-.29,1.25-.46,1.75-1.63,4.85-3.29,9.68-4.89,14.54-.42,1.27-1.04,1.81-2.5,1.79-9.04-.09-18.08-.03-27.12-.12-2.1-.02-4.3-.14-6.28-.76-4.07-1.27-6.18-4.35-6.55-8.56-.26-2.98-.48-5.98-.49-8.97-.06-11.12-.05-22.25,0-33.37,0-2.03.15-4.1.56-6.08,1.16-5.61,4.23-7.8,9.54-8.25,5.42-.46,10.9-.28,16.36-.29,10.83-.03,21.66-.02,32.5.02,1.58,0,3.17.1,4.73.34,6.02.95,8.89,5.01,8.93,11.12.12,15.41.04,30.83.04,46.25,0,2.5-.01,5,.01,7.5,0,.73-.14,1.21-1,1.21-5.58-.02-11.16-.03-16.74-.05-.03,0-.07-.04-.25-.15-.02-.34-.06-.77-.06-1.21.01-12.58.04-25.16.04-37.75,0-2.67-.14-5.33-.16-8,0-.9-.41-1.16-1.22-1.15-1.17.02-2.33,0-3.5,0-9.87,0-19.75,0-29.62,0-.57,0-1.15,0-1.87,0,0,.62,0,1.23,0,1.84.01,9,.04,18,.03,27,0,.99.11,1.41,1.34,1.4,9.45-.08,18.9-.04,28.63-.04Z"/>
      <path d="m405.97,24.27c-.78,2.33-1.47,4.36-2.15,6.4-1.12,3.35-2.28,6.69-3.32,10.06-.36,1.16-.98,1.57-2.15,1.57-6.87,0-13.74.05-20.61.08-.53,0-1.06,0-1.74,0v1.71c0,14.95,0,29.91,0,44.86,0,1.74,0,1.74-1.78,1.73-5.12-.02-10.24-.03-15.36-.04-.28,0-.56-.03-.87-.05,0-.85,0-1.62,0-2.4,0-14.08-.01-28.16-.01-42.23,0-3.5,0-7,.06-10.5.12-6.76,3.48-10.39,10.22-10.97,2.32-.2,4.66-.23,6.99-.24,9.75-.02,19.49,0,29.24.01.4,0,.81,0,1.49,0Z"/>
      <path d="m183.13,90.73c-5.61,0-11.15-.03-16.68.03-1.1.01-1.4-.25-1.4-1.36.03-29.32.03-58.65,0-87.97,0-1.2.39-1.44,1.49-1.43,5.5.05,10.99.02,16.6.02v90.71Z"/>
      <path d="m83,57.56c-.91-19.73,16.91-36.4,35.9-36.34,20.18.06,36.32,17.09,36.31,36.21,0,19.66-16.8,36.6-36.61,36.29-19.9-.3-36.37-17.49-35.6-36.16Zm36.06-15.63s0-.03,0-.04c-1.83,0-3.67-.04-5.5.02-.54.02-1.22.17-1.58.52-2.54,2.46-5,5.01-7.52,7.5-.7.69-1.02,1.44-1.01,2.43.05,3.54,0,7.08.07,10.62.01.63.35,1.39.78,1.84,2.38,2.45,4.8,4.86,7.3,7.19.54.51,1.42.89,2.15.92,3.7.12,7.41.12,11.12.12.37,0,.84-.19,1.1-.45,2.62-2.62,5.24-5.24,7.79-7.93.44-.46.76-1.23.77-1.86.06-3.67.04-7.33-.01-11,0-.49-.21-1.1-.54-1.44-2.56-2.62-5.15-5.22-7.8-7.75-.42-.4-1.16-.63-1.76-.66-1.79-.09-3.58-.03-5.37-.03Zm-32.91,8.72c-.16,1.25-.32,2.35-.45,3.45-.73,6.32.22,12.35,3.19,18.01.23.44.94.88,1.42.88,5.74.03,11.49-.03,17.23-.07.25,0,.5-.11.89-.2-7.46-7.39-14.81-14.67-22.28-22.07Zm65.89,13.3c.11-1.36.21-2.88.37-4.39.62-5.84-.81-11.3-3.04-16.62-.33-.78-.87-1.08-1.75-1.07-5.5.05-11,.04-16.49.06-.39,0-.79.05-1.29.08,7.48,7.4,14.85,14.68,22.2,21.94Zm-14.49,21.63c1.39-1.13,2.53-2.01,3.61-2.95,4.52-3.94,7.77-8.74,9.64-14.44.12-.38.03-1.04-.23-1.31-4.02-4.04-8.08-8.05-12.14-12.05-.21-.21-.5-.35-.88-.61v31.36Zm-37.04-56c-.37.22-.54.31-.71.43-5.82,4.09-9.99,9.43-12.37,16.17-.37,1.04-.23,1.67.53,2.39,1.84,1.75,3.62,3.56,5.42,5.35,2.29,2.27,4.59,4.53,7.12,7.03v-31.37Zm-9.4,46.41c1.73,2.42,3.44,4.49,5.48,6.37,3.34,3.08,7.17,5.21,11.37,6.78.75.28,1.32.18,1.9-.41,3.74-3.79,7.52-7.55,11.28-11.33.36-.36.66-.78,1.19-1.4h-31.21Zm21.49,14.05l.25.39c3.4.47,6.82.82,10.27.41,3.67-.44,7.12-1.56,10.48-3.08.83-.37,1.09-.71,1.08-1.62-.07-5.25-.05-10.49-.06-15.74,0-.59,0-1.18,0-1.77l-.37-.24c-7.21,7.22-14.43,14.44-21.64,21.66Zm12.59-65.61c-1.59-.14-3.57-.42-5.56-.46-5.27-.09-10.34.81-15.1,3.22-.79.4-1.07.79-1.07,1.67,0,5.66-.06,11.32-.09,16.99,0,.19.1.38.12.47,7.28-7.35,14.54-14.68,21.69-21.9Zm21.61,14.56c-.06-.23-.06-.36-.13-.46-2.06-3.13-4.73-5.69-7.62-8.03-2.52-2.04-5.5-3.23-8.41-4.57-1.07-.49-1.71-.49-2.57.4-3.74,3.86-7.57,7.63-11.35,11.44-.29.29-.5.66-.9,1.22h30.98Z"/>
      <path d="m151.97,141.07v2.52H13.83v-2.52h138.14Z"/>
      <path d="m392.38,141.1c-.05.85-.09,1.67-.14,2.46h-138.11v-2.46h138.25Z"/>
      <path d="m169.69,147.37c.9-2.59,1.73-4.97,2.56-7.35.83-2.35,1.67-4.69,2.51-7.04.47-1.34,1.9-2.02,3.14-1.43.21.1.39.52.39.8.02,6.58.02,13.16.03,19.75,0,.68-.25,1-.97.92-.45-.05-.91,0-1.63,0,.14-6,.27-11.92.41-18.12-.34.67-.64,1.15-.84,1.68-1.46,3.98-2.86,7.98-4.38,11.93-.35.91-1.09,1.67-1.64,2.49-.46-.81-1.02-1.57-1.35-2.42-1.41-3.65-2.73-7.32-4.11-10.98-.24-.65-.61-1.25-.86-1.77,0,2.4,0,4.85,0,7.3,0,2.83-.01,5.67.04,8.5.02,1.04-.42,1.37-1.41,1.39-1.11.02-1.05-.66-1.05-1.4,0-6.46-.03-12.91-.04-19.37,0-.2.05-.4.09-.76.76,0,1.52-.12,2.22.04.43.1.94.55,1.1.97,1,2.69,1.89,5.41,2.87,8.11.75,2.07,1.58,4.11,2.39,6.15.07.17.26.3.54.6Z"/>
      <path d="m201.89,131.35c2.37.18,4.64.28,6.89.55,1.21.14,2.48.37,3.57.89,3.41,1.64,4.74,4.68,4.84,8.25.05,1.92-.1,3.95-.69,5.76-1.25,3.85-4.24,5.75-8.18,6.05-2.1.16-4.23.03-6.43.03v-21.53Zm2.61,19.69c1.4-.07,2.67-.08,3.94-.22,2.41-.27,4.15-1.53,5.2-3.74,1.14-2.4,1.14-4.91.71-7.44-.64-3.78-2.89-5.73-6.7-5.96q-3.17-.19-3.15,3.02c0,.58,0,1.16,0,1.75,0,4.11,0,8.22,0,12.57Z"/>
      <path d="m195.25,140.72v2.19h-8.17c0,2.47.02,4.83-.01,7.19-.01.89.5.89,1.14.88,2.5-.02,5-.01,7.5-.02.41,0,.82,0,1.31,0v1.91c-.39.03-.78.09-1.18.09-3.37.01-6.75,0-10.12.02-.66,0-1.23.03-1.23-.94.02-6.78.01-13.57.01-20.46h12.4c-.04,2.06-.12,2.13-2.08,2.14-2.21.01-4.42.04-6.62.06-.79,0-1.18.21-1.1,1.18.12,1.49.05,3-.02,4.49-.05,1,.32,1.3,1.3,1.27,2.28-.06,4.56-.02,6.88-.02Z"/>
      <path d="m322.06,8.92c-5.2,3.09-10.01,5.98-14.85,8.79-.61.35-1.43.41-2.16.45-1.19.07-2.39.02-3.84.02.31-.4.46-.66.67-.86,4.5-4.51,9.01-9,13.48-13.52.47-.47.79-.5,1.24-.07,1.74,1.66,3.49,3.31,5.47,5.19Z"/>
      <path d="m228.19,152.8c.55-1.6,1.09-3.12,1.6-4.64,1.67-5,3.35-9.99,4.97-15,.39-1.21,1.04-1.79,2.36-1.69.75.05,1.23.23,1.49,1.01,2.17,6.54,4.37,13.06,6.56,19.59.07.22.05.48.07.71-2.02.52-2.64.19-3.12-1.7-.31-1.21-.56-2.42-.85-3.64-.16-.69-.52-1.03-1.31-1.01-2,.05-3.99.05-5.99,0-.81-.02-1.23.28-1.47,1.01-.4,1.26-.87,2.51-1.26,3.77-.52,1.72-.98,2.01-3.05,1.59Zm8.82-19.06l-.43-.06c-1.01,3.52-2.02,7.05-3.08,10.72h6.57c-1.04-3.63-2.05-7.14-3.06-10.66Z"/>
      <path d="m222.08,131.59q2.67-.27,2.68,2.13c0,5.95-.02,11.9.04,17.85.01,1.23-.52,1.45-1.56,1.49-1.14.04-1.16-.61-1.16-1.43.01-6.65,0-13.3,0-20.03Z"/>
    </g>
  </g>
</svg>