<?xml version="1.0" encoding="UTF-8"?>
<svg id="Réteg_2" data-name="Réteg 2" xmlns="http://www.w3.org/2000/svg" viewBox="0 0 615.93 528.3">
  <defs>
    <style>
      .cls-1 {
        fill: none;
        stroke: #000;
        stroke-linecap: round;
        stroke-linejoin: round;
        stroke-width: 2px;
      }

      .cls-2 {
        font-family: MVBoli, 'MV Boli';
        font-size: 62.2px;
      }
    </style>
  </defs>
  <g id="Réteg_1" data-name="Réteg 1">
    <path d="m559.65,357.17c23.08-111.74-30.42-208.48-103.43-257.85-87.28-59.02-178.64-63.92-272.56-15.59C81.07,146.66,37.33,236.99,55.85,357.12c-10.53.74-21.88,1.54-33.23,2.34.01.49.02.98.03,1.47,13.66,0,27.31-.01,40.97,0,27.5.03,55,.11,82.5.03.91,0,1.7.05,2.4.21h7.18s-.03-.07-.05-.11c3.11,0,5.22,0,7.34,0,34.99-.02,69.98-.14,104.97.06,4.69.03,9.39,1.59,14.06,2.57,9.22,1.94,18.42,3.99,27.63,5.92,1.59-.96,3.19-2.09,5.03-2.39,13.94-5.91,29.49-6.55,45.37-6.33,32.66.45,65.32.16,97.98.17,1.96,0,3.91,0,6.83,0,.01,0,.03,0,.04,0,.03,0,.06,0,.09,0,.06,0,.11-.02.17-.02s.12.01.18.02c0,0,0,0,0,0,.06,0,.12.01.18.02.01,0,.03,0,.04,0h9.71c.9-.03,1.93-.03,3.15-.03,24.33-.02,48.66-.02,73-.03,13.96,0,27.92,0,41.87,0,0-.49,0-.99,0-1.48-11.19-.79-22.38-1.58-33.65-2.37ZM79.87,200.7c1.05-2.69,2.62-3.89,5.62-3.53,9.3,1.1,17.34-2.02,24.59-7.64,1.31-1.02,2.77-1.85,4.1-2.85,8.95-6.71,18.31-8.24,28.38-2.52,2.16,1.23,4.56,2.04,6.75,3.23,8.79,4.73,17.82,5.54,26.82,1.03,7.18-3.6,14.12-1.91,22.16-.28-5.76,4.23-10.8,7.94-15.85,11.64-14.77,10.83-29.59,21.59-44.25,32.55-2.79,2.09-5,2.65-7.98.56-11.19-7.83-22.03-7.13-32.39,1.7-9.75,8.3-21.64,10.25-33.69,11.72l-1.72-1.16c5.83-14.81,11.68-29.61,17.45-44.45Zm117.52,133.92c0,2.89.31,5.23-.12,7.43-.24,1.23-1.56,2.91-2.69,3.19-8.35,2.06-16.73,4.08-25.2,5.6-7.24,1.3-13.69-.86-19.86-6.68,16.25-3.24,31.74-6.32,47.88-9.53Zm-.39-7.11c-2.76-1.51-5.09-2.79-7.42-4.07.1-.36.19-.72.29-1.08,2.26-.2,4.52-.4,7.13-.63v5.77Zm.38-10.17c-16.92,1.37-33.57,2.83-49.09-5.97-15.04-8.52-30.06-17.08-45.11-25.59-2.6-1.47-5.31-2.73-7.96-4.13-10.11-5.32-20.06-5.08-29.89.78-2.68,1.59-5.47,2.99-8.27,4.52-.18-.58-.27-.73-.27-.88.09-11.5.37-11.61,11.23-15.1,8.72-2.8,17.32-3.19,25.87.17,14.25,5.61,28.04,5.25,41.95-1.56,14.58-7.13,28.56-6.23,41.29,4.89,5.57,4.86,12.39,6.9,20.26,6.79v36.08Zm-141.37-13.57c-1.44-8.84,2.37-13.42,10-17.33,9.72-4.98,18.74-5.98,28.4-.54,15.61,8.78,31.32,17.37,46.99,26.04-9.36,2.01-18.11,3.81-26.83,5.8-6.11,1.39-12.03,1.86-18.13-.39-19.78-7.31-19.81-7.22-40.3,1.49,0-5.4.63-10.34-.14-15.06Zm1.32,21.69c-.1-.87.71-2.23,1.49-2.77,9.35-6.44,18.96-10.31,30.18-4.05,8.84,4.93,18.48,6.18,28,2.57,16.86-6.39,33.39-2.6,50.13.23,9.51,1.61,19.22,2.01,26.92,9.49-15.49,3.39-30.89,6.84-46.35,10.03-1.46.3-3.51-.64-4.84-1.62-5.04-3.69-9.96-7.39-16.82-5.79-.91.21-2.05,0-2.95-.36-11.34-4.36-21.75-1.21-32.3,3.31-9.6,4.12-19.59,7.33-30.51,11.35-1.09-8.06-2.13-15.21-2.95-22.39Zm8.83,30.8c-3.75-.08-4.46-1.84-4.59-5.36,3.71-1.07,7.54-1.94,11.21-3.29,8.9-3.26,17.74-6.68,26.56-10.16,7.01-2.77,13.97-3.8,22.03.04-17.96,9.45-34.75,19.22-55.21,18.77Zm26.15.22s-.02-.53.17-.62c11.23-5.69,22.54-11.25,33.71-17.07,3.89-2.03,7.18-1.86,10.58.84,2.99,2.38,6.39,4.28,9.2,6.84,9.59,8.7,20.77,9.61,32.72,7.16,5.83-1.2,11.62-2.54,17.36-3.8.98,2.27,1.81,4.19,2.87,6.65h-106.61Zm113.76-75.06c.06-1.94.67-5.51,1.16-5.53,3.37-.16,7.22-2.6,10.11,1.24.8,1.06,1.62,2.14,2.6,3.01,3.99,3.53,9.16,3.07,12.04-1.44,1.54-2.41,2.21-5.38,3.42-8.5h5.89c-10.08,27.64-8.03,53.39,11.52,76.79h-46.89c0-16.53,0-32.31,0-48.1,0-5.82-.03-11.65.15-17.47Zm27.79-23.93c-6.98.47-13.95,1.09-20.94,1.29-4.34.13-3.18-3.29-2.98-5.83.28-3.62,1-6.79,5.95-5.04.37,3.08.74,6.07,1.11,9.07,1.31-7.13,2.61-9.12,5.51-8.86-.3,2.73-.6,5.47-1.03,9.37h12.38Zm-5.27-8.93c4.39.84,4.9,2.07,2.48,8.66-1.02-3.56-1.75-6.12-2.48-8.66Zm-4.18,27.69c-2.32-.83-4.06-3.27-6.06-4.99,1.08-4.54,3.19-6.8,6.26-6.13,2.17.47,4.99,2.79,5.54,4.82.9,3.35-2.93,7.31-5.74,6.31Zm-8.99-4.01c-1.53,0-2.39.17-3.15-.04-1.69-.47-3.34-1.13-5-1.72.7-.51,1.5-1.55,2.08-1.44,2.07.4,5.52-1.84,6.07,3.19Zm124.98-40.55c.21,10.71,8.55,16.96,13.76,25.22-14.28-17.29-32.6-24.3-54.56-22.87-21.88,1.42-38.43,12.16-51.59,29.1-.36-.34-.71-.68-1.07-1.02,3.9-4.54,7.4-9.53,11.8-13.51,5.18-4.68,10.09-9.19,10.49-16.92h71.17Zm-70.11-6.5c1.04-4.01,2.86-6.45,7.16-6.44,18.16.06,36.32.1,54.48,0,4.33-.02,6.3,2.04,7.16,6.44h-68.8Zm109.35,29.71c-4.6-.47-9.33-.97-13.88-.43-6.8.8-10.84-2.38-14.44-8.36,6,0,11.55,0,17.1,0,9.8,0,19.59-.01,29.39,0,9.94.02,10.47.6,9.58,12.08-9.54-1.15-18.63-2.37-27.75-3.3Zm26.59,12.92c-2.44,1.25-12.05-.83-14.98-3.79,5.2,0,9.57-.09,13.94.09.77.03,1.66,1.11,2.13,1.92.17.3-.54,1.49-1.1,1.78Zm-30.61,75.4c2.26-3.81.33-7.56-6.16-11.56,6.72-18.78,7.62-37.8,0-57.54h13.63c.1.73.39,1.82.39,2.91.04,21.78.07,43.57.03,65.35,0,5.63-1.23,7.03-6.97,7.23-6.77.24-13.55.06-20.32.06l-.21-1.7c1.8-1.67,3.61-3.34,5.37-4.97,6.41,4.2,11.87,4.24,14.25.22Zm-13.94-84.05c5.61,0,11-.51,16.25.14,5.3.65,5.8,5.06,5.47,9.88-5.35,0-10.28.12-15.19-.1-.96-.04-2.16-1.24-2.74-2.21-1.32-2.24-2.33-4.67-3.79-7.71Zm-97.65-6.26c14.81-15.78,51.2-19.98,68.52-7.88-24.37-10.59-46.97-5.9-68.52,7.88Zm24.34-4.3c-14.82,6.11-26.65,14.78-34.82,28.29,3.85-16.76,22.09-31.93,34.82-28.29Zm-42.45,7.24c-.71,1.1-2.44,2.03-3.78,2.12-2.42.17-4.89-.32-7.33-.55.02-3.07.02-6.17.02-9.99,4.62.29,9.45.6,14.53.92-1.27,2.88-2.06,5.39-3.44,7.5Zm-2.43,68.57c-6.14-15.84-5.41-31.7.31-49.05-1.23,9.38-3.08,17.33-3.1,25.29-.02,7.95,1.79,15.89,2.79,23.76Zm15.36,26.49c0,.49,0,.98.01,1.47h-56.02c0-.4,0-.81,0-1.21,18.67-1.16,37.34-1.37,56-.26Zm.81,5.6h-50.1l-.14-.53h50.25c0,.18,0,.35-.01.53Zm75.29-14.33c-16.1,12.45-37.4,13.83-54.83,3.52-1.62-.96-3.11-2.15-4.5-3.45,33.94,18.2,62.72.61,71.82-21.29,9.5-22.88-.96-50.67-23.71-60.81-20.79-9.26-53.67-2.57-66.08,33.35.45-21.01,11.82-33.5,30.59-38.56,25.84-6.96,55.22,5.56,63.34,35.14,5.35,19.48-1.15,40.15-16.62,52.1Zm-66.44-40.12c-.03-20.63,15.66-37.33,35.01-37.24,20.76.09,36.76,16.62,36.74,37.94-.02,18.89-16.87,35.75-35.73,35.74-20.72-.02-35.99-15.46-36.02-36.43Zm78.05,54.39c.03-.36.06-.72.09-1.08,7.63,0,15.25.1,22.88-.04,5.06-.09,10.07.32,14.65-3.35,1.91-1.53,5.71-.81,8.66-.89,4.45-.11,8.91-.03,13.69-.03.16,1.89.27,3.29.45,5.38h-60.42Zm61.2-12.39c-4.08,0-8.36.34-12.51-.23-1.08-.15-2.52-3.12-2.52-4.79-.03-13.83.28-27.65.42-41.48.08-8.15.01-16.31.01-25.22h14.61v71.72Zm4.68-43.19c-.2-15.64-.35-31.28-.68-46.91-.2-9.8-1.55-11.1-11.19-11.96-.96-.09-1.9-.34-2.81-.5.44-7.2-.34-8.46-7.46-8.64-9.81-.24-19.65-.06-29.46.27-5.95.2-7,1.95-5.82,8.02-7.19,1.62-8.68.46-10.03-6.53-1.02-5.28-2.18-10.65-4.21-15.59-1.5-3.66-5.13-5.69-9.41-5.36-3.12.24-4.32-1.22-4.97-4.11-1.16-5.12-4.59-7.3-9.88-7.15-7.16.2-14.33.03-21.5.04-9.35.01-11.25,1.55-13.21,10.88-.66.12-1.43.39-2.21.4-7.85.11-13.3,4.36-14,12.4-1.8,20.7-7.2,16.74-20.48,16.9-2.49.03-4.99,0-7.59,0-2.76-10.72-11.16-6.84-17.78-7.1-4.15-.16-5.97,1.95-7.09,6.64-.3.13-.6.33-.91.34-12.28.32-12.85.95-13.7,13.54-.27,4.01.79,8.37-4.64,10.74-2.96,1.29-1.82,5.67,2.23,9.36-6.71.58-11.48-2.82-16.62-5.73-6.43-3.64-13-7.45-20.01-9.51-8.67-2.54-17.35.62-25.08,4.44-12.49,6.17-24.72,6.83-37.56,1.61-10.85-4.41-21.78-3.94-32.57.56-1.35.56-2.81.86-5.15,1.55,1.02-5.78,1.79-10.97,2.97-16.06.24-1.05,1.89-2.15,3.1-2.53,2.69-.83,5.5-1.37,8.3-1.75,9.76-1.31,18.7-4.56,26.59-10.59,2.24-1.71,4.67-3.21,7.11-4.62,6.9-3.99,18.65-1.97,23.7,4.13.38.46-.09,1.62-.23,3.05,6.07-3.98,12-7.6,17.65-11.61,22.26-15.81,44.55-31.58,66.57-47.72,6.42-4.7,12.12-10.43,17.9-15.95,3.94-3.76,7.86-4.46,12.59-1.73,3.3,1.91,6.79,3.5,10.76,5.52-6.74,7.71-13.23,15.13-19.73,22.56.25.28.49.55.74.83,2.28-2,4.67-3.88,6.82-6.01,17.99-17.82,35.93-35.69,53.91-53.52,2.6-2.58,5.21-5.17,7.99-7.55,2.91-2.49,5.99-2.73,8.91.13,3.96,3.87,8.03,5.75,13.92,3.46,1.85-.72,5.8,1.85,7.75,3.9,11.23,11.85,22.12,24.02,33.18,36.04,3.32,3.61,6.8,7.09,10.21,10.62.29-.25.58-.5.87-.74-.59-.89-1.17-1.79-1.76-2.68-.62-.94-1.24-1.88-2.26-3.43,1.71,0,2.81-.19,3.82.03,10.15,2.16,19.28-.27,28.31-5.09,12.55-6.7,21.02-4.78,29.73,6.41,5.24,6.74,11.48,11.88,19.09,15.69,7.24,3.63,14.23,7.75,21.9,10.85-4.75-3.35-9.39-6.86-14.28-10-9.69-6.24-18.75-12.93-25.98-22.26-6.85-8.85-17.58-10.82-28.03-6.67-3.08,1.22-6.11,2.67-9,4.3-9.22,5.2-18.77,3.15-28.24,1.27-1.67-.33-3.13-2.33-4.43-3.79-10.09-11.31-20.08-22.71-30.18-34.02-3.91-4.38-8.26-7.05-14.55-4.21-1.36.61-4.06-.71-5.65-1.85-7.68-5.52-11.71-5.79-18.49.78-13.04,12.64-25.78,25.59-38.44,38.61-2.52,2.6-4.31,2.96-7.55,1.3-17.12-8.76-17.03-8.5-31.54,4.17-5.46,4.77-11.42,9.18-17.76,12.62-3.29,1.78-8.06,1.93-11.93,1.32-5.95-.94-11.55-1.21-17.05,1.47-8.76,4.27-17.43,4.13-25.72-1.01-15.43-9.57-29.53-8.14-43.56,3.43-8.73,7.19-13.6,7.74-22.03,6.16C118.62,121.88,210.85,44.96,335.41,58.43c115.94,12.54,196.52,101.94,215.21,185.47-4.88-5.69-9.75-11.39-14.66-17.07-2.4-2.77-4.72-5.63-7.32-8.19-6.74-6.62-14.47-7.76-22.75-3.05-6.5,3.7-12.58,8.14-19.08,11.85-13.79,7.88-13.86,7.77-23.32-4.55-2.13-2.77-4.39-5.46-6.34-8.36-3-4.45-6.07-8.23-12.41-7.29-1.46.22-3.49-1.6-4.86-2.89-5.46-5.14-7.57-5.51-14.1-1.98-6.12,3.31-6.17,3.34-10.46-2.38-2.33-3.1-4.83-5.25-9.18-4.65-1.45.2-3.7-.89-4.64-2.12-4.32-5.61-9.76-5.92-15.68-3.65-3.71,1.42-7.2,3.41-11.22,5.35-7.32-8.87-14.83-17.76-22.09-26.84-3.3-4.13-6.54-7.37-12.55-6.03-1.36.3-3.48-1.4-4.82-2.65-4.94-4.58-9.28-5.37-14.07-.64-11.82,11.69-23.14,23.87-34.66,35.86l1.16,1.36c1.15-.91,2.39-1.73,3.45-2.74,10.01-9.54,20.01-19.09,29.97-28.68,6.02-5.8,7.36-5.97,12.45-.35,1.49,1.65,4.91,2.97,6.9,2.43,3.75-1.02,5.41.54,7.52,2.98,14.06,16.24,28.24,32.39,42.4,48.55.7.8,1.56,1.45,2.98,1.64-5.14-7.03-10.29-14.05-15.63-21.35,2.53-1.42,4.92-2.86,7.4-4.13,6.4-3.27,8.56-2.73,13.56,2.39,1.5,1.53,3.92,3.44,5.67,3.22,4.51-.58,6.6,2,9.06,4.8,7.57,8.61,15.28,17.1,22.94,25.63.38-.29.76-.59,1.13-.88-4.76-6.56-9.52-13.12-14.65-20.19,2.36-1.3,4.35-2.35,6.3-3.48,2.73-1.58,4.99-1.24,6.98,1.32,2.79,3.6,6.07,5.82,11.11,5.16,1.51-.2,3.83,1.7,4.96,3.24,17.74,24.25,37.35,46.91,58.11,68.6.78.82,1.66,1.55,3.3,1.67-8.33-10.73-16.67-21.45-25.16-32.38,3.97-2.65,7.69-5.12,11.41-7.61,3.44-2.3,6.5-2.23,9.06,1.36,2.46,3.45,5.37,5.49,10.09,4.97,1.57-.17,3.84,2.17,5.13,3.86,7.99,10.44,15.77,21.04,23.69,31.53,1.48,1.95,3.3,3.64,5.59,5.07-.35-.83-.58-1.73-1.07-2.47-8.33-12.45-16.71-24.88-25.04-37.33-2.37-3.54-5.15-5.88-9.88-5.41-1.38.14-3.23-1.34-4.38-2.54-5.23-5.5-8.82-6.26-15.4-2.56-3.18,1.79-6.06,4.16-9.3,5.82-1.18.6-3.64.5-4.46-.32-3.01-3.05-5.58-6.54-7.8-9.23,10.91-6.55,21.51-13.02,32.22-19.29,6.71-3.93,11.98-3.18,17.48,2.71,5.91,6.33,10.79,13.78,17.32,19.32,9.73,8.26,14.14,18.31,14.7,30.7.57,12.63,1.48,25.25,2.24,37.87.18,3-.88,4.65-4.22,4.6-2.99-.05-6,.61-8.97.49-8.71-.37-16.74,1.7-24.58,5.45-2.31,1.1-5.75,1.02-8.28.22-6.17-1.95-12.16-4.5-18.12-7.05-6.08-2.59-12.15-2.81-18.54-1.32-2.37.55-5.3.43-7.53-.49-6-2.46-11.93-3.6-18.48-2.82-12.4,1.49-24.86,2.44-37.3,3.59-.3.03-.61-.19-1.47-.47,0-3.59.04-7.38,0-11.17Zm68.59,16.65c-.42-.19-.75-.59-1.96-1.56,12.82-2.61,21.91,5.48,32.81,8-5.83,4.87-5.86,4.95-11.92,2.27-6.35-2.81-12.63-5.78-18.94-8.7Zm15.29,11.31l-.38,1.92c-6.81-.91-13.6-1.91-20.42-2.71-6.37-.75-12.87-2.34-19.13-1.73-13.11,1.27-23.65-5.16-34.96-9.44,0-.49.02-.97.03-1.46,13.19-.8,26.37-1.85,39.57-2.23,3.08-.09,6.32,1.86,9.31,3.25,8.71,4.03,17.33,8.25,25.99,12.4Zm-83.8-11.05c6.93,2.79,13.36,5.32,19.74,7.96,6.98,2.89,14.07,4.37,21.76,4.49,10.18.16,20.33,1.65,30.5,2.57-.03.56-.05,1.11-.08,1.67-3.06,2.5-6.03,5.12-9.24,7.41-.98.7-2.8,1.01-3.91.6-9.3-3.44-18.19-1.86-27.23,1.26-10.32,3.56-20.83,6.55-31.53,9.87v-35.83Zm5.51,38.44c13.53-4.17,26.09-8.33,38.85-11.76,3.31-.89,7.23.5,10.83,1.49-15.61,7.15-31.03,14.24-49.68,10.27Zm37.28.29c-.06-.35-.12-.69-.17-1.04,7.7-2.8,15.27-6.07,23.15-8.18,3.35-.9,7.6-.05,11,1.19,5.33,1.94,10.3,4.89,16.7,8.04h-50.68Zm94.16-.96c-10.79-.3-21.63-.34-32.34-1.5-6.14-.67-12.18-2.98-18.06-5.12-6.25-2.27-12.26-5.22-18.19-7.79,3.38-1.97,7.18-4.68,11.36-6.51,5.76-2.52,11.8-3,17.87-.46,13.47,5.63,27,11.11,40.46,16.77,1.49.63,2.64,2.05,3.95,3.1-1.69.52-3.38,1.54-5.05,1.49Zm6.24-6.76c-15.3-6.08-29.81-11.85-45.29-18,7.24-4.45,13.28-4.84,20.07-2.75,8.67,2.68,17.63,4.45,27.25,6.8-.57,3.97-1.22,8.45-2.02,13.94Zm2.61-19.4c-10.86.31-20.7-2.72-31.1-6.56,10.47-5.83,21.28-3.54,32.33-4.91-.46,4.28-.82,7.67-1.23,11.47Z"/>
    <path d="m465.87,430.45s.01-.06.02-.09c-1.34.16-2.68.26-4.03.23-.44,0-.88-.03-1.32-.06-.68.32-1.34.66-2.01.98-1.08,2.53-2.12,4.97-3.11,7.28-5.71-3.01-10.8-5.7-15.9-8.39-.12.29-.24.58-.36.87,3.48,2.77,7.12,5.37,10.39,8.37,2.62,2.4,3,5.24.65,8.43-3.42,4.64-6.52,9.52-9.93,14.56-20.4-24.16-47.99-30.36-76.71-33.25-10.82-1.09-21.84-.18-32.78-.46,20.05,1.47,40.11,3.17,59.5,9.1,15.77,4.82,30.53,11.37,42.02,23.85,3.37,3.66,3.92,6.36-.2,9.69-2.52,2.04-4.57,4.66-7.59,7.82-6.1-14.86-15.59-25.58-28.81-32.99-12.97-7.27-27.05-10.79-41.84-13.32,10.3,4.11,20.51,7.59,30.19,12.17,14.64,6.92,26.55,17.02,33.54,32.17,1.78,3.86,2.03,6.63-2.14,9.01-2.55,1.46-4.7,3.62-7.1,5.53-2.66-6.44-4.7-12.46-7.55-18.06-11.65-22.95-32.14-33.84-55.9-39.65-9.71-2.37-19.63-3.92-28.87-5.54.1.28.15.57.17.86.02.55-.23,1.16-.59,1.59,16.18,3.27,32.34,6.59,47.39,13.74,20.33,9.66,33.63,25.08,38.73,47.27.55,2.39.59,4-1.84,5.33-5.81,3.19-11.51,6.58-17.96,10.3-7.19-35.51-26.01-60.42-61.53-71.88,8.13,5.23,15.89,9.57,22.93,14.88,18.34,13.83,27.93,32.97,32.27,55.14,1.08,5.52-3.13,5.16-6.86,6.71-1.14-4.53-2.21-8.78-3.27-13.03-9.21-37.06-37.73-62.47-75.54-67.3-.95-.12-1.92-.02-2.03-.02,8.94,3.34,18.97,6.1,28.08,10.69,24.52,12.38,38.12,33.39,44.58,59.53.32,1.29.67,2.58.95,3.88,1.94,9.04,1.89,9.1-7.93,10.72-.95-4.12-1.83-8.3-2.86-12.44-9.93-39.81-38.73-65.78-79.32-71.43-6.26-.87-12.57-1.5-18.88-1.86-5.3-.3-10.64-.06-16.01.69,7.17.65,14.37,1.04,21.5,2,21.23,2.86,41.38,8.62,58.17,22.84,18.6,15.77,27.98,36.38,31.36,60.09.07.46-.13.96-.32,2.18-7.35,1.15-14.84,2.49-22.4,3.32-1.04.11-3.01-2.05-3.45-3.5-6.5-21.35-18.32-38.73-37.52-50.57-14.41-8.89-30.55-13.17-46.96-15.98-22.93-3.93-46.01-7-69.06-10.26-3.66-.52-6.13-1.69-7.47-5.35-.8-2.18-1.69-4.34-2.61-6.54-1.95.02-3.89.07-5.84.07-.13,0-.25-.02-.37-.04,0,.02.01.04.02.06-42.96.79-85.26,1.57-127.56,2.35,1.57.29,3.15.27,4.74.3,38.16.59,76.32,1.45,114.48,1.55,7.93.02,12.98,1.77,14.93,9.69.07.27-.07.59-.2,1.46-42.27.72-84.64,1.45-127,2.18,0,.69,0,1.38.01,2.07,40.49,0,80.98,0,121.47,0,10.18,0,10.77.46,14.3,10.89-44.8.52-89.42,1.04-134.04,1.56,0,.21,0,.42,0,.63,2.28,0,4.57-.03,6.85,0,40.82.62,81.65,1.56,122.47,1.62,8.82.01,13.26,3.94,17.42,11.33-46.56.56-92.62,1.12-138.68,1.68,2.74.62,5.49.59,8.24.62,43.66.59,87.32,1.13,130.97,1.92,2.82.05,5.93,1.6,8.34,3.28,10.38,7.2,20.02,15.61,30.89,21.92,33.52,19.48,69.96,25.73,108.32,21.71,37.57-3.94,70.7-18.19,99-43.25,3.02-2.68,5.81-3.81,9.68-3.86,42.66-.47,85.32-1.06,127.98-1.62,2.03-.03,4.06,0,6.09,0,0-.25-.02-.51-.03-.76-44.36-.58-88.71-1.15-133.79-1.74,7.27-10.83,7.27-10.9,18.59-11.08,38.66-.61,77.32-1.16,115.98-1.72,2.87-.04,5.75,0,8.62,0,0-.23,0-.46,0-.69-43.5-.55-86.99-1.1-130.44-1.65,2.71-9.42,8.62-11.06,16.93-11.03,34.49.12,68.99-.52,103.49-.87,4.59-.05,9.18,0,13.77,0,0-.31,0-.62.01-.93-41.57-.75-83.14-1.5-124.94-2.26q3.45-10.68,13.02-10.85c36.99-.56,73.99-1.1,110.98-1.64,1.81-.03,3.61,0,5.42,0-.01-.15-.02-.31-.03-.46-40.63-.75-81.25-1.51-121.99-2.26Zm-296.2,21.88c19.84,4.96,39.03,9.6,58.11,14.59,11.14,2.92,21.91,6.9,31.18,14.07,13.03,10.07,20.63,23.19,22.52,39.6-26.93,5.3-100.83-39.33-111.82-68.27Zm119.92,70.34c-1.03-.03-2.66-2.29-2.88-3.69-3.85-24.56-17.49-42.06-40.36-50.47-19.07-7.02-39.23-11.11-58.96-16.28-5.61-1.47-11.43-2.13-17.14-3.24-1.54-.3-3.02-.91-4.52-1.38.09-.59.18-1.18.28-1.76,9.33,1.39,18.71,2.48,27.96,4.24,21.88,4.14,44.03,7.42,65.48,13.21,29.38,7.94,48.33,27.6,56.58,57.16.17.62.27,1.26.51,2.39-9.17,0-18.07.13-26.95-.17Z"/>
    <path d="m5.99,286.18H0C8.54,134.4,145.37-6.96,320.8.27c171.22,7.05,290.51,151.34,295.13,285.87h-5.67c-7.49-87.01-45.52-157.79-112.88-212.32C440.4,27.69,374.57,4.9,301.13,6.68,145,10.47,16.62,135.12,5.99,286.18Z"/>
    <path d="m187.5,147.85c1.52,1.83,2.62,3.17,3.73,4.51-1.82.64-3.65,1.28-6.15,2.16-.27.91-.78,2.59-1.49,4.96-2.93-4.35-5.57-8.28-8.37-12.44,2.67-.4,5.92-.39,8.78-1.46,3.01-1.12,5.64-3.27,8.43-4.97.57.72,1.15,1.44,1.72,2.17-2.26,1.73-4.53,3.46-6.65,5.08Z"/>
    <path d="m273.03,301.96c.41-18.94,13.73-32.38,31.63-31.92,18.11.47,31.06,14.71,30.61,33.64-.41,17.31-14.8,30.08-33.4,29.66-16.29-.37-29.2-14.42-28.84-31.38Zm46.79,1.03c.1-9.91-7.12-17.57-16.53-17.54-8.63.03-16.1,7.59-16.18,16.37-.08,8.79,6.98,16.43,15.29,16.56,9.69.15,17.33-6.6,17.41-15.39Zm-15.2,19.65c-7.85-1.51-14.82-4.06-18.4-12-3.44-7.63-1.95-14.84,1.82-21.96-6.51,6.76-7.67,16.33-3.35,24.43,4.11,7.71,10.97,11.12,19.94,9.53Zm5.31,4.93c-17.37-.25-23.89-4.43-31.78-19.8,2.22,15.56,16.77,25.05,31.78,19.8Zm10.29-4.96c11.52-6.79,14.42-25.37,5.11-35,6.2,13.21,6.17,24.95-5.11,35Zm.92-32.3c3.96,7,4.18,14.27,1.34,21.76,4.41-7.55,3.7-14.79-1.34-21.76Zm-38.73-6.37c.19.35.39.7.58,1.06,5.34-3.26,10.68-6.53,16.02-9.79-.15-.25-.29-.51-.44-.76-5.39,3.16-10.78,6.33-16.16,9.49Z"/>
    <path class="cls-1" d="m253.96,247.79l-9,13.5"/>
    <path class="cls-1" d="m271.96,228.79c-1-.17-2-.33-3-.5"/>
    <path class="cls-1" d="m340.96,357.29c2,.67,4,1.9,6,1.91,18,.15,36,.13,54,.04,2.67-.01,5.33-.62,8-.96"/>
    <path class="cls-1" d="m487.96,333.79c-2.33,1.83-4.78,3.55-6.96,5.54-1.38,1.27-2.37,2.96-3.54,4.46"/>
    <path class="cls-1" d="m472.46,236.79c1.17,1.83,2.15,3.81,3.53,5.48,12.29,14.87,24.64,29.69,36.97,44.52"/>
    <path class="cls-1" d="m200.46,319.29c-4.5.67-9,1.33-13.5,2"/>
    <path class="cls-1" d="m415.46,358.54c11.67-.25,23.33-.5,35-.75"/>
    <path class="cls-1" d="m552.96,292.79c-9.17-12.83-18.41-25.61-27.44-38.54-2.2-3.15-4.69-4.49-8.55-4.65-2.05-.09-4.32-1.82-5.95-3.37-5.08-4.84-7.73-5.25-13.56-1.44-3.83,2.5-7.67,5-11.5,7.5"/>
    <path class="cls-1" d="m305.96,275.29c-4.68-4.73-10.17-2.8-14.35-.25-4.5,2.74-7.82,7.42-11.65,11.25"/>
    <path class="cls-1" d="m286.46,245.29c-5.83,2.33-11.68,4.64-17.5,7.01-2.69,1.1-5.34,2.32-8,3.49"/>
    <path class="cls-1" d="m549.46,358.54c6.45.7,7.09.55,8.06-6.74,1.18-8.87,2.9-17.66,4.12-26.52.38-2.77-.09-5.66-.18-8.49"/>
    <path class="cls-1" d="m192.96,142.29c-3.65,1.8-7.7,3.18-8.5,8"/>
    <path class="cls-1" d="m199.96,331.29c-16.17,3.67-32.41,7.02-48.45,11.19-4.86,1.26-8.18.63-11.57-2.66-4.06-3.94-8.8-5.74-14.48-3.8-.77.26-1.87.56-2.46.22-9.59-5.46-18.66-2.62-28.07.94-11.82,4.48-23.96,8.11-35.96,12.11"/>
    <path class="cls-1" d="m201.46,186.79c-8.62-2.71-17.57-4.41-25.92-.33-9.4,4.59-17.9,2.9-26.58-1.18-3.37-1.59-6.64-3.39-10.01-4.97-8.45-3.98-16.14-1.4-23.47,3.02-4.95,2.98-9.56,6.52-14.55,9.41-6.15,3.56-12.8,3.29-19.47,1.56"/>
    <path class="cls-1" d="m383.96,259.79c-3.25-3.22-7.38-3.14-11.5-2.99-4.17.14-8.33.33-12.5.49"/>
    <path class="cls-1" d="m197.46,330.29c-3.83-2.83-7.34-6.42-11.6-8.27-3.69-1.6-8.27-1.04-12.39-1.77-7.69-1.36-15.37-2.84-23-4.49-7.79-1.68-15.41-.6-23,1.06-6.36,1.39-12.61,3.32-19.02,4.38-6.79,1.13-13.07-1.56-18.94-4.49-9.47-4.72-18.29-4.22-27.08,1.53-2.09,1.37-4.63,2.05-6.96,3.05"/>
    <path class="cls-1" d="m55.46,289.79c3.33-1.67,6.81-3.1,9.97-5.04,10.57-6.48,21.05-5.78,31.52.05,15.19,8.46,30.36,16.95,45.47,25.56,1.45.83,2.37,2.6,3.54,3.93"/>
    <path class="cls-1" d="m231.46,244.79c.67,1.83,1.67,3.62,1.91,5.51.25,1.95-.24,3.99-.41,5.99-1.67-.33-3.33-.67-5-1"/>
    <path class="cls-1" d="m245.46,272.29c-4.62,2.69-4.96,7.44-6.06,11.99-3.15,13.02-2.99,25.85,1.6,38.5.7,1.94,1.96,3.68,2.96,5.51"/>
    <path class="cls-1" d="m226.46,242.79c-.33,3.5-.67,7-1,10.5"/>
    <path class="cls-1" d="m20.96,359.79c11.5-.17,23-.25,34.5-.53,7.17-.17,14.33-.64,21.5-.97"/>
    <path class="cls-1" d="m257.96,169.29c-2.5,3-4.85,6.15-7.53,8.97-4.71,4.95-9.63,9.7-14.47,14.53"/>
    <path class="cls-1" d="m358.96,242.29c-3.17.92-6.33,1.83-9.5,2.75"/>
    <path class="cls-1" d="m561.46,316.29c.33-7.17,1.27-14.37.86-21.49-.61-10.53-2.08-21.02-3.41-31.5-.49-3.88-1.61-7.67-2.44-11.51"/>
    <path class="cls-1" d="m335.96,244.29c-10.05-6.59-21.2-8.21-33-8.1-15.59.15-29.05,5.42-40.97,15.13-.53.43-.69,1.3-1.02,1.97"/>
    <path class="cls-1" d="m198.96,270.79c-2.33-.17-4.67-.33-7-.5"/>
    <path class="cls-1" d="m478.96,201.79c-6.5-4.17-12.71-8.91-19.57-12.36-8.94-4.5-15.91-10.93-21.92-18.65-6.68-8.58-18.06-11.08-29.06-5.08-4.37,2.38-9.16,4.75-13.98,5.35-6.55.81-13.41.54-19.92-.54-2.95-.49-5.7-3.76-7.99-6.27-9.96-10.88-19.77-21.91-29.53-32.97-3.56-4.04-7.29-5.49-12.62-3.19-1.58.68-4.66-.59-6.34-1.89-7.11-5.52-9.99-5.76-16.53.64-12.64,12.35-25.04,24.96-37.54,37.46-1.59,1.59-3.18,3.18-4.98,4.98-4.14-2.06-8.07-4.04-12.02-5.98-9.02-4.42-10.5-4-17.54,2.45-6.45,5.9-13.29,11.38-19.95,17.05"/>
    <path class="cls-1" d="m317.46,251.79c-.25,2.14-.47,4.3-3.5,4"/>
    <path class="cls-1" d="m508.46,356.29c-5.67-3-11.16-6.41-17.06-8.86-3.85-1.6-8.65-3.27-12.35-2.31-6.08,1.58-10.76-1.89-16.09-2.18-4.63-.25-9.5.22-13.96,1.47-10.44,2.94-20.71,6.51-31.02,9.91-1.25.41-2.34,1.3-3.51,1.97"/>
    <path class="cls-1" d="m217.96,243.79c-.17,3.33-.46,6.67-.42,10,.01,1,.92,2,1.42,3"/>
    <path class="cls-1" d="m476.96,316.29c6,3.33,12.01,6.64,17.99,10.02,1.89,1.07,3.68,2.32,5.51,3.48"/>
    <path class="cls-1" d="m417.46,316.29c4.67,2.33,9.46,4.45,13.98,7.04,10.73,6.16,22.48,4.47,34.02,5.1,5.88.32,11.85,1.65,17.46,3.5,5.48,1.81,10.4.06,15.55-.65.16-.02.33,0,.5,0,8.17-.06,14.59-5.21,21.97-7.59,4.16-1.34,7.88-4.6,12.06-5.2,9.24-1.34,18.64-1.54,27.97-2.21"/>
    <path class="cls-1" d="m234.46,266.29c-1.5,3.67-3,7.33-4.5,11"/>
    <path class="cls-1" d="m88.46,358.54c1.83.25,3.67.71,5.5.72,17.5.05,35,.03,52.5.03,16.17,0,32.33.03,48.5-.04,2,0,4-.62,6-.96"/>
    <path class="cls-1" d="m209.96,354.34c-1.66,0-3.33.62-5,.95"/>
    <path class="cls-1" d="m265.96,353.29c-3.17.5-6.33,1.43-9.5,1.43"/>
    <path class="cls-1" d="m374.96,171.79c1.67,2.67,3.33,5.33,5,8"/>
    <path class="cls-1" d="m199.96,189.79c-13.33,9.67-26.62,19.4-40.02,28.98-8.57,6.13-17.34,11.98-25.96,18.06-1.52,1.07-2.69,2.63-4.03,3.96"/>
    <path class="cls-1" d="m554.21,243.29c-4.08-12-7.5-24.28-12.39-35.94-10.58-25.21-25.82-47.58-43.86-68.06"/>
    <path class="cls-1" d="m408.96,269.79h-16.5"/>
    <path class="cls-1" d="m201.46,358.29c4.5.17,9,.42,13.5.48,15.17.21,30.33.41,45.5.43,1.5,0,3-1.24,4.5-1.91"/>
    <path class="cls-1" d="m292.96,249.29c-3.17,1.5-6.28,3.13-9.51,4.48-10.55,4.4-18.69,11.6-24.99,21.02"/>
    <path class="cls-1" d="m132.46,236.79c-2.17-1.17-4.47-2.13-6.48-3.53-8.95-6.28-17.18-4.49-25.02,2.04-11.02,9.17-24.3,11.93-38.01,13.47-.48.05-1-.31-1.5-.47"/>
    <path class="cls-1" d="m384.46,271.29c-6.92.42-14.19-1.54-20.5,3"/>
    <path class="cls-1" d="m282.46,216.54c-5.69.13-11.87-.49-13.93,6.77-.91,3.22-1.15,6.64-1.55,9.98-.77,6.35-4.36,10.45-10.02,13"/>
    <path class="cls-1" d="m515.46,324.79c-9.33-3.83-18.58-7.9-28.06-11.33-2.25-.81-5.57-.13-7.87.98-3.44,1.66-6.44,1.48-9.56-.16-8.73-4.57-17.78-3.5-27.02-2.07-7.1,1.1-14.33,1.36-21.48,2.11-3.18.34-6.34.97-9.5,1.47"/>
    <path class="cls-1" d="m508.46,330.79c6.5,3.17,12.85,6.71,19.54,9.41,9.52,3.85,19.3,7.09,28.96,10.59"/>
    <path class="cls-1" d="m205.46,272.79c3.82.45,7.63.9,12.35,1.45-.55-3.85-.95-6.65-1.35-9.45"/>
    <path class="cls-1" d="m470.46,347.29c-4.17,1.83-8.34,3.66-12.5,5.5-1.84.82-3.67,1.66-5.5,2.5"/>
    <path class="cls-1" d="m256.46,246.29c-3.5-.17-7.03-.1-10.49-.56-4.53-.6-9.01-1.61-13.51-2.44"/>
    <path class="cls-1" d="m386.96,347.29c-4.48,3.22-8.8,6.94-15,5"/>
    <path class="cls-1" d="m358.21,257.79c-2.25-2.83-4.4-5.76-6.77-8.48-6.02-6.9-10.15-14.38-9.6-24.02.23-4.04-4.58-7.95-8.87-8.53-2.36-.32-4.67-.97-7-1.47"/>
    <path class="cls-1" d="m436.96,229.79c-3.33-3.83-6.75-7.6-9.98-11.52-4.75-5.77-9.34-11.66-14.04-17.47-.89-1.09-2.24-3.03-2.94-2.86-6.87,1.74-10.2-4.07-15.13-6.48-2.15-1.05-5.53-.92-7.85-.01-4.06,1.58-7.73,4.17-11.56,6.34"/>
    <path class="cls-1" d="m478.96,120.79c-22.06-20.06-46.62-36.21-74.53-46.93-12.34-4.74-24.71-9.98-37.54-12.75-15.54-3.35-31.6-4.32-47.43-6.32-1.5-.19-3-.34-4.5-.5"/>
    <path class="cls-1" d="m123.46,336.79c-1,1.17-1.77,2.81-3.04,3.42-9.26,4.48-18.66,8.67-27.94,13.13-2.01.97-3.69,2.61-5.53,3.95"/>
    <path class="cls-1" d="m321.46,283.79c2,6.5,4.5,12.9,5.83,19.53.93,4.68-1.17,9.1-4.83,12.47"/>
    <path class="cls-1" d="m556.96,358.29c3.83.33,7.66.84,11.5.96,8.83.28,17.67.37,26.5.54"/>
    <path class="cls-1" d="m256.46,347.29c-1.83.5-3.66,1.4-5.5,1.44-14.5.28-29,.51-43.5.49-3.83,0-7.75-1.68-11.48-1.25-6.07.7-12,2.58-18.02,3.81-11.47,2.34-22.45,2.4-31-7.48"/>
    <path class="cls-1" d="m524.96,323.79c8.82,4.4,18.18,6.8,28,7.53,2.18.16,4.34.64,6.5.97"/>
    <path class="cls-1" d="m317.96,289.79c4.22,7.08,5.81,14.29,1.58,22.04-.74,1.35-.41,3.29-.58,4.96"/>
    <path class="cls-1" d="m277.46,302.79c-3.81,3.67-1.43,7.37.02,10.99,6.01,15.08,22.1,21.86,35.48,15.01"/>
    <path class="cls-1" d="m307.96,320.79c-4-.83-8.22-1.11-11.96-2.61-10.17-4.08-12.87-17-7.59-25.92,1.16-1.97,1.72-4.3,2.55-6.47"/>
    <path class="cls-1" d="m278.46,302.79c.83,1.83,1.92,3.59,2.46,5.51,3.35,12.01,13.69,17.92,25.04,16.92,1.55-.14,3.01-1.26,4.51-1.93"/>
    <path class="cls-1" d="m393.96,242.29c2.83.67,5.64,1.7,8.51,1.92,5,.38,6.92,2.12,7,7.08.32,20,.72,40,.97,60,.13,10.33.13,20.67-.07,31-.04,2.01-1.24,4-1.91,6"/>
    <path class="cls-1" d="m553.46,246.79c-2.33-1.33-5.18-2.2-6.91-4.09-5.59-6.1-10.74-12.6-16.1-18.91-9.5-11.16-16.76-10.89-29.04-3.08-8.24,5.24-16.9,9.84-25.48,14.52-2.62,1.43-4.87,1.31-7.1-1.85-4.91-6.96-10.73-13.28-15.78-20.16-2.09-2.84-4.42-3.5-7.59-3.52-1.67,0-3.72-.46-4.94-1.49-8.54-7.21-10.13-7.28-19.56.07"/>
    <path class="cls-1" d="m327.46,285.29c9.02,11.95,7.08,29.71-4.6,38.87-1.79,1.4-4.9,1.13-7.4,1.63"/>
    <path class="cls-1" d="m392.96,220.79c-14.5-17.67-28.99-35.34-43.51-52.99-.89-1.09-2.17-3-2.96-2.86-7.42,1.38-12.39-3.39-18.13-6.47-1.15-.61-4.03.66-5.33,1.89-8.81,8.35-17.42,16.91-26.07,25.43-3.36,3.31-6.67,6.66-10,10"/>
    <path class="cls-1" d="m300.46,54.54c-26.43.64-52.11,5.3-77,14.24-28.38,10.19-54.17,24.85-77.54,43.96-22.4,18.32-40.84,39.95-55.99,64.53-12.83,20.81-22.19,43.12-28.87,66.55-2.28,7.99-3.49,16.29-5.02,24.49-.2,1.07.59,2.32.93,3.49"/>
    <path class="cls-1" d="m200.46,278.29c-8.92,2.79-16.47-.69-22.92-6.1-13.79-11.56-28.21-10.95-43.62-3.99-7.05,3.19-14.37,6.36-22.45,5.02-5.05-.84-10.19-1.78-14.97-3.54-10.45-3.85-20.7-4.19-31.03.11-.2.08-.31.41-.51.48-10.36,3.63-10.89,4.28-10.98,15.01-.08,9.33-.29,18.68.04,28,.53,15.05,2.29,29.96,6.44,44.5"/>
    <text class="cls-2" transform="translate(46.05 414.14)"><tspan x="0" y="0">Polgar Alex Media</tspan></text>
  </g>
</svg>