<?xml version="1.0" encoding="UTF-8"?>
<svg id="Réteg_2" data-name="Réteg 2" xmlns="http://www.w3.org/2000/svg" viewBox="0 0 361.75 218.8">
  <g id="Réteg_1" data-name="Réteg 1">
    <g>
      <path d="m189.92,155.5v61.86c-.29.06-.56.16-.84.16-2.96.04-5.91.04-8.87.1-.74.02-.79-.34-.79-.92,0-2.25-.05-4.5-.06-6.75-.01-10.96-.01-21.91-.02-32.87,0-1.14,0-2.28-.29-3.58-6.75,10.42-13.5,20.84-20.41,31.5-6.88-10.65-13.58-21.04-20.29-31.43-.1.03-.19.06-.29.09v43.69c-.45.08-.76.17-1.08.18-2.75.06-5.5.08-8.24.15-.94.03-1.3-.28-1.3-1.29.03-19.54.02-39.08.02-58.62,0-2.53.02-2.53,2.62-2.51,2.42.01,4.83.06,7.25,0,1.12-.03,1.84.36,2.45,1.32,4.95,7.8,9.95,15.57,14.94,23.35,1.05,1.65,2.12,3.28,3.13,4.95.68,1.12,1.1.46,1.51-.17,2.65-4.04,5.28-8.08,7.91-12.13,3.24-4.99,6.64-9.89,9.65-15.02,1.22-2.08,2.66-2.47,4.75-2.34,2.28.15,4.58.09,6.87.14.44,0,.89.08,1.38.13Z"/>
      <path d="m71.13,168.51c-4.18,9.24-8.36,18.48-12.65,27.95h16.27c1.59,3.53,3.1,6.88,4.7,10.43-.69.04-1.13.08-1.57.09-7.46.06-14.91.14-22.37.14-1.3,0-1.95.48-2.44,1.62-1.11,2.55-2.34,5.05-3.49,7.59-.46,1.02-1.09,1.51-2.3,1.47-3.24-.09-6.48-.03-9.87-.03,1.49-3.26,2.92-6.38,4.33-9.52,7.52-16.68,15.04-33.35,22.56-50.03,1.33-2.94,1.32-2.92,4.63-2.84,2.46.06,4.92.03,7.37.11.4.01,1,.31,1.15.64,2.44,5.33,4.81,10.69,7.21,16.04,5.77,12.82,11.54,25.63,17.31,38.45.94,2.08,1.91,4.15,2.86,6.24.09.21.1.46.18.86-2.17,0-4.24,0-6.31,0-1.08,0-2.17-.07-3.25.03-1.23.12-1.88-.38-2.37-1.49-3.47-7.79-6.99-15.55-10.48-23.32-3.54-7.89-7.07-15.78-10.61-23.67-.11-.25-.3-.46-.45-.69l-.43-.05Z"/>
      <path d="m282.09,177.07v-21.81c2.32,0,4.56,0,6.79,0,3.68,0,3.66,0,3.66,3.61,0,18.83,0,37.66-.01,56.5,0,2.33,0,2.32-2.28,2.34-2.29.02-4.58.04-6.87.15-1.02.05-1.36-.22-1.35-1.29.04-7.12-.11-14.25.06-21.37.15-6.35-5.23-11.62-10.69-12.5-6.85-1.11-13.43,3.23-14.94,10.33-1.34,6.31,3.13,14,9.95,14.95,2.32.32,4.6.74,6.89-.17.22-.09.82.21.92.46,1.02,2.59,1.96,5.21,2.95,7.81.27.7-.04.93-.66,1.16-10.17,3.91-21.41.29-27.08-8.94-5.75-9.36-4.55-21.41,2.78-29.28,7.14-7.66,19.29-9.14,28.01-3.42.58.38,1.09.85,1.87,1.47Z"/>
      <path d="m183.79,46.57c-4.66,7.56-4.43,14.57,2.36,20.63,2.48,2.22,5.71,3,9.07,2.92,3.3-.08,6.31-.97,8.85-3.51.11.46.21.68.21.9,0,3.75.01,7.5-.05,11.24,0,.56-.24,1.26-.62,1.64-4,4.07-8.06,8.07-12.07,12.13-.76.77-1.58,1.11-2.65,1.11-5.54-.04-11.07-.02-16.61-.1-.58,0-1.3-.33-1.72-.75-4.17-4.08-8.32-8.16-12.38-12.35-.64-.67-1.06-1.83-1.08-2.78-.1-5.16-.04-10.33-.06-15.49,0-1.06.39-1.85,1.17-2.62,4.08-3.98,8.08-8.06,12.17-12.03.56-.54,1.49-.96,2.26-.98,3.33-.11,6.66-.05,9.99-.04.36,0,.72.04,1.15.07Z"/>
      <path d="m.01,217.71c0-1.26,0-2.34,0-3.41,0-18.83,0-37.65-.01-56.48,0-2.36-.01-2.38,2.35-2.38,6.79,0,13.58-.06,20.37.06,9.72.17,16.93,4.68,20.8,13.53,3.48,7.94,2.51,15.7-3.08,22.61-3.19,3.95-7.27,6.59-12.17,7.83-1.75.44-3.62.53-5.44.59-2.73.09-5.47.02-8.35.02.12-.41.18-.72.3-1.01,1.15-2.76,2.36-5.5,3.45-8.28.38-.96.91-1.2,1.88-1.16,3.4.12,6.69-.18,9.66-2.18,3.69-2.49,5.4-6.95,5.02-11.56-.42-5.16-6.71-10.19-12.28-9.92-3.45.17-6.91.12-10.37.17-1.58.02-1.67.08-1.67,1.73-.02,15.54-.03,31.07-.05,46.61,0,3.84.43,3.19-3.23,3.23-2.36.03-4.73,0-7.18,0Z"/>
      <path d="m235.77,211.14c-7.9,9.07-21.01,9.55-29.43,4.22-7.37-4.67-11.14-11.41-11.22-19.97-.12-13.7,11.51-22.87,22.19-23.23,12.14-.41,22.52,8.11,24.26,19.97.37,2.51-.06,5.14-.14,7.71-.03.87-.68.88-1.35.88-5.41-.01-10.83-.01-16.24-.01-5.25,0-10.49.02-15.74.03-.33,0-.65.04-1.18.07.16.43.22.78.4,1.06,3.77,6,10.07,7.65,16.43,5.55.83-.27,1.92-.35,2.72-.05,3.11,1.14,6.15,2.47,9.31,3.78Zm-5.91-20.83c-.32-3.94-6.02-7.76-11.01-7.68-6.86.12-11.46,4.8-11.75,7.68h22.76Z"/>
      <path d="m342.92,207.51c1.21,3.14,2.38,6.14,3.58,9.24-2.05,1.13-4.24,1.67-6.45,1.9-10.22,1.04-19.01-3.66-23.07-13.07-3.89-9.02-3.06-17.82,3.44-25.61,6.24-7.47,15.77-9.41,23.84-6.68,2.35.8,4.51,2.18,6.74,3.28v-3.26c.89-.04,1.66-.09,2.43-.11,2.5-.05,4.99-.05,7.49-.14.78-.03.8.38.8.92,0,2.17.02,4.33.02,6.5,0,11.62,0,23.24-.02,34.86,0,2.93-.08,2.35-2.35,2.37-2.33.03-4.67-.05-7,.01-1.02.03-1.35-.26-1.34-1.32.04-6.96-.13-13.91.06-20.87.18-6.45-4.66-11.49-9.99-12.67-4.99-1.1-9.34.47-12.69,4.1-3.23,3.51-4.02,7.82-2.57,12.46,1.73,5.54,5.79,8.04,11.25,8.82,1.99.28,3.89.15,5.82-.75Z"/>
      <path d="m157.15,93.51c12.96,12.9,25.72,25.61,38.61,38.45-1.7.99-3.23,1.87-4.74,2.76-3.19,1.88-6.36,3.78-9.57,5.63-.34.19-.97.22-1.3.03-7.37-4.2-14.71-8.46-22.08-12.65-.76-.43-.78-.98-.79-1.64-.04-8.12-.08-16.23-.12-24.35-.01-2.65,0-5.3,0-8.23Z"/>
      <path d="m166.21,8.05c3.86-2.25,8.15-4.48,12.11-7.19,2.06-1.4,3.39-.91,5.18.16,6.67,4,13.41,7.88,20.09,11.86.37.22.63.92.64,1.39.04,7.5.03,14.99.03,22.49,0,3.16,0,6.31,0,9.33-12.68-12.68-25.39-25.39-38.04-38.05Z"/>
      <path d="m147.61,121.52c-2.79-1.61-5.47-3.17-8.16-4.72-6.28-3.6-12.56-7.21-18.86-10.77-.81-.45-1.1-.94-1.07-1.85.06-1.79-.04-3.58,0-5.37,0-.45.18-1.01.48-1.31,8.54-8.55,17.11-17.07,25.67-25.59.62-.61,1.28-1.18,1.94-1.8v51.41Z"/>
      <path d="m213.99,18.8c.85.47,1.53.84,2.2,1.22,8.08,4.63,16.14,9.32,24.28,13.86,1.32.73,1.72,1.45,1.58,2.83-.12,1.15-.12,2.34.02,3.49.19,1.52-.36,2.59-1.42,3.63-8.73,8.58-17.43,17.21-26.14,25.81-.12.11-.25.21-.53.44V18.8Z"/>
      <path d="m180.71,103.24h61.11c.55,1.51.33,2.16-.88,2.85-11.89,6.86-23.78,13.72-35.64,20.61-.79.46-1.17.16-1.68-.36-6.98-7.09-13.97-14.18-20.96-21.26-.6-.61-1.24-1.19-1.94-1.85Z"/>
      <path d="m119.37,36.99c.06-1.23.12-2.22,1.5-3,11.71-6.59,23.37-13.26,35.01-19.98,1.22-.7,1.72-.27,2.55.57,7.33,7.39,14.72,14.72,22.1,22.08.06.06.08.14.19.33h-61.35Z"/>
      <path d="m119.46,84.06v-37.48h37.44c-12.44,12.45-24.91,24.94-37.44,37.48Z"/>
      <path d="m204.5,93.49c12.47-12.32,24.91-24.61,37.49-37.04v37.04h-37.49Z"/>
      <path d="m299,217.76c0-1.89,0-3.72,0-5.54,0-12.41,0-24.82-.01-37.23q0-1.7,1.75-1.7c2.54,0,5.08.01,7.62-.03.9-.01,1.24.26,1.23,1.22-.03,13.99-.03,27.98,0,41.97,0,1.02-.27,1.36-1.33,1.33-3.03-.07-6.06-.03-9.25-.03Z"/>
      <path d="m298.97,166c0-3.3-.02-6.54.04-9.78,0-.27.52-.76.8-.77,3-.04,5.99-.03,8.99.05.29,0,.8.58.81.89.02,2.91-.03,5.83-.13,8.74-.01.3-.49.82-.76.82-3.2.06-6.39.04-9.75.04Z"/>
    </g>
  </g>
</svg>